<mxfile host="app.diagrams.net" modified="2022-12-27T19:08:34.425Z" agent="5.0 (Windows NT 10.0; Win64; x64) AppleWebKit/537.36 (KHTML, like Gecko) Chrome/108.0.0.0 Safari/537.36" etag="kdp-l3wWBHoxwBPgY56j" version="20.7.4" type="github">
  <diagram id="8eBF70qgTYVY1_IniYaQ" name="Страница 1">
    <mxGraphModel dx="2607" dy="1389" grid="1" gridSize="10" guides="1" tooltips="1" connect="1" arrows="1" fold="1" page="1" pageScale="1" pageWidth="827" pageHeight="1169" math="0" shadow="0">
      <root>
        <mxCell id="0" />
        <mxCell id="1" parent="0" />
        <mxCell id="uP4A9XmEusP5UuuR2ky6-1" value="Инженер по сборке" style="shape=umlLifeline;perimeter=lifelinePerimeter;whiteSpace=wrap;html=1;container=1;collapsible=0;recursiveResize=0;outlineConnect=0;fillColor=#60a917;fontColor=#ffffff;strokeColor=#2D7600;" parent="1" vertex="1">
          <mxGeometry y="175" width="100" height="755" as="geometry" />
        </mxCell>
        <mxCell id="uP4A9XmEusP5UuuR2ky6-2" value="" style="html=1;points=[];perimeter=orthogonalPerimeter;fillColor=#647687;fontColor=#ffffff;strokeColor=#314354;" parent="uP4A9XmEusP5UuuR2ky6-1" vertex="1">
          <mxGeometry x="45" y="70" width="10" height="80" as="geometry" />
        </mxCell>
        <mxCell id="uP4A9XmEusP5UuuR2ky6-3" value="" style="html=1;points=[];perimeter=orthogonalPerimeter;fillColor=#647687;fontColor=#ffffff;strokeColor=#314354;" parent="uP4A9XmEusP5UuuR2ky6-1" vertex="1">
          <mxGeometry x="45" y="170" width="10" height="100" as="geometry" />
        </mxCell>
        <mxCell id="uP4A9XmEusP5UuuR2ky6-4" value="" style="html=1;points=[];perimeter=orthogonalPerimeter;fillColor=#647687;fontColor=#ffffff;strokeColor=#314354;" parent="uP4A9XmEusP5UuuR2ky6-1" vertex="1">
          <mxGeometry x="45" y="540" width="10" height="80" as="geometry" />
        </mxCell>
        <mxCell id="uP4A9XmEusP5UuuR2ky6-5" value="" style="html=1;points=[];perimeter=orthogonalPerimeter;fillColor=#647687;fontColor=#ffffff;strokeColor=#314354;" parent="uP4A9XmEusP5UuuR2ky6-1" vertex="1">
          <mxGeometry x="45" y="310" width="10" height="80" as="geometry" />
        </mxCell>
        <mxCell id="uP4A9XmEusP5UuuR2ky6-6" value="" style="html=1;points=[];perimeter=orthogonalPerimeter;fillColor=#647687;fontColor=#ffffff;strokeColor=#314354;" parent="uP4A9XmEusP5UuuR2ky6-1" vertex="1">
          <mxGeometry x="45" y="420" width="10" height="80" as="geometry" />
        </mxCell>
        <mxCell id="uP4A9XmEusP5UuuR2ky6-7" value="" style="html=1;points=[];perimeter=orthogonalPerimeter;fillColor=#647687;fontColor=#ffffff;strokeColor=#314354;" parent="uP4A9XmEusP5UuuR2ky6-1" vertex="1">
          <mxGeometry x="45" y="670" width="10" height="80" as="geometry" />
        </mxCell>
        <mxCell id="uP4A9XmEusP5UuuR2ky6-8" value="Сборка заказа" style="edgeStyle=orthogonalEdgeStyle;html=1;align=left;spacingLeft=2;endArrow=block;rounded=0;entryX=1.01;entryY=0.983;entryDx=0;entryDy=0;entryPerimeter=0;exitX=0.944;exitY=0.006;exitDx=0;exitDy=0;exitPerimeter=0;" parent="uP4A9XmEusP5UuuR2ky6-1" edge="1" target="uP4A9XmEusP5UuuR2ky6-7" source="uP4A9XmEusP5UuuR2ky6-7">
          <mxGeometry relative="1" as="geometry">
            <mxPoint x="55" y="690" as="sourcePoint" />
            <Array as="points">
              <mxPoint x="85" y="670" />
              <mxPoint x="85" y="749" />
            </Array>
            <mxPoint x="55" y="710" as="targetPoint" />
          </mxGeometry>
        </mxCell>
        <mxCell id="uP4A9XmEusP5UuuR2ky6-9" value="Менеджер доступа" style="shape=umlLifeline;perimeter=lifelinePerimeter;whiteSpace=wrap;html=1;container=1;collapsible=0;recursiveResize=0;outlineConnect=0;size=40;fillColor=#60a917;fontColor=#ffffff;strokeColor=#2D7600;" parent="1" vertex="1">
          <mxGeometry x="120" y="175" width="100" height="150" as="geometry" />
        </mxCell>
        <mxCell id="uP4A9XmEusP5UuuR2ky6-10" value="" style="html=1;points=[];perimeter=orthogonalPerimeter;" parent="uP4A9XmEusP5UuuR2ky6-9" vertex="1">
          <mxGeometry x="45" y="70" width="10" height="80" as="geometry" />
        </mxCell>
        <mxCell id="uP4A9XmEusP5UuuR2ky6-11" value="Проверка&lt;br&gt;данных" style="edgeStyle=orthogonalEdgeStyle;html=1;align=left;spacingLeft=2;endArrow=block;rounded=0;entryX=1;entryY=0;" parent="uP4A9XmEusP5UuuR2ky6-9" target="uP4A9XmEusP5UuuR2ky6-12" edge="1">
          <mxGeometry relative="1" as="geometry">
            <mxPoint x="55" y="90" as="sourcePoint" />
            <Array as="points">
              <mxPoint x="85" y="90" />
            </Array>
          </mxGeometry>
        </mxCell>
        <mxCell id="uP4A9XmEusP5UuuR2ky6-12" value="" style="html=1;points=[];perimeter=orthogonalPerimeter;" parent="uP4A9XmEusP5UuuR2ky6-9" vertex="1">
          <mxGeometry x="45" y="130" width="10" height="10" as="geometry" />
        </mxCell>
        <mxCell id="uP4A9XmEusP5UuuR2ky6-13" value="" style="html=1;verticalAlign=bottom;endArrow=none;dashed=1;endSize=8;exitX=0;exitY=0.95;rounded=0;" parent="uP4A9XmEusP5UuuR2ky6-9" source="uP4A9XmEusP5UuuR2ky6-10" target="uP4A9XmEusP5UuuR2ky6-12" edge="1">
          <mxGeometry relative="1" as="geometry">
            <mxPoint x="-69.89999999999998" y="146" as="targetPoint" />
            <mxPoint x="45" y="146" as="sourcePoint" />
          </mxGeometry>
        </mxCell>
        <mxCell id="uP4A9XmEusP5UuuR2ky6-14" value="" style="html=1;points=[];perimeter=orthogonalPerimeter;fillColor=#bac8d3;strokeColor=#23445d;" parent="uP4A9XmEusP5UuuR2ky6-9" vertex="1">
          <mxGeometry x="45" y="70" width="10" height="80" as="geometry" />
        </mxCell>
        <mxCell id="uP4A9XmEusP5UuuR2ky6-16" value="Менеджер заказов" style="shape=umlLifeline;perimeter=lifelinePerimeter;whiteSpace=wrap;html=1;container=1;collapsible=0;recursiveResize=0;outlineConnect=0;fillColor=#60a917;fontColor=#ffffff;strokeColor=#2D7600;" parent="1" vertex="1">
          <mxGeometry x="240" y="175" width="100" height="640" as="geometry" />
        </mxCell>
        <mxCell id="uP4A9XmEusP5UuuR2ky6-17" value="" style="html=1;points=[];perimeter=orthogonalPerimeter;fillColor=#647687;fontColor=#ffffff;strokeColor=#314354;" parent="uP4A9XmEusP5UuuR2ky6-16" vertex="1">
          <mxGeometry x="45" y="170" width="10" height="100" as="geometry" />
        </mxCell>
        <mxCell id="uP4A9XmEusP5UuuR2ky6-18" value="" style="html=1;points=[];perimeter=orthogonalPerimeter;fillColor=#647687;fontColor=#ffffff;strokeColor=#314354;" parent="uP4A9XmEusP5UuuR2ky6-16" vertex="1">
          <mxGeometry x="45" y="310" width="10" height="80" as="geometry" />
        </mxCell>
        <mxCell id="uP4A9XmEusP5UuuR2ky6-19" value="" style="html=1;points=[];perimeter=orthogonalPerimeter;fillColor=#647687;fontColor=#ffffff;strokeColor=#314354;" parent="uP4A9XmEusP5UuuR2ky6-16" vertex="1">
          <mxGeometry x="45" y="555" width="10" height="80" as="geometry" />
        </mxCell>
        <mxCell id="uP4A9XmEusP5UuuR2ky6-20" value="Ввод логина и пароля" style="html=1;verticalAlign=bottom;endArrow=block;entryX=-0.043;entryY=0.008;rounded=0;entryDx=0;entryDy=0;entryPerimeter=0;" parent="1" source="uP4A9XmEusP5UuuR2ky6-1" target="uP4A9XmEusP5UuuR2ky6-14" edge="1">
          <mxGeometry relative="1" as="geometry">
            <mxPoint x="95" y="245" as="sourcePoint" />
            <Array as="points">
              <mxPoint x="160" y="245" />
            </Array>
          </mxGeometry>
        </mxCell>
        <mxCell id="uP4A9XmEusP5UuuR2ky6-21" value="Пароль &lt;br&gt;или логин неверный" style="html=1;verticalAlign=bottom;endArrow=open;dashed=1;endSize=8;exitX=0.056;exitY=0.995;rounded=0;startArrow=none;exitDx=0;exitDy=0;exitPerimeter=0;entryX=1.064;entryY=0.991;entryDx=0;entryDy=0;entryPerimeter=0;" parent="1" source="uP4A9XmEusP5UuuR2ky6-14" target="uP4A9XmEusP5UuuR2ky6-2" edge="1">
          <mxGeometry x="0.0017" relative="1" as="geometry">
            <mxPoint x="60" y="330" as="targetPoint" />
            <mxPoint as="offset" />
          </mxGeometry>
        </mxCell>
        <mxCell id="uP4A9XmEusP5UuuR2ky6-22" value="Заказ" style="shape=umlLifeline;perimeter=lifelinePerimeter;whiteSpace=wrap;html=1;container=1;collapsible=0;recursiveResize=0;outlineConnect=0;fillColor=#60a917;fontColor=#ffffff;strokeColor=#2D7600;" parent="1" vertex="1">
          <mxGeometry x="360" y="175" width="100" height="600" as="geometry" />
        </mxCell>
        <mxCell id="uP4A9XmEusP5UuuR2ky6-23" value="" style="html=1;points=[];perimeter=orthogonalPerimeter;fillColor=#bac8d3;strokeColor=#23445d;" parent="uP4A9XmEusP5UuuR2ky6-22" vertex="1">
          <mxGeometry x="40" y="190" width="10" height="80" as="geometry" />
        </mxCell>
        <mxCell id="uP4A9XmEusP5UuuR2ky6-24" value="" style="html=1;points=[];perimeter=orthogonalPerimeter;fillColor=#647687;fontColor=#ffffff;strokeColor=#314354;" parent="uP4A9XmEusP5UuuR2ky6-22" vertex="1">
          <mxGeometry x="90" y="550" width="10" height="50" as="geometry" />
        </mxCell>
        <mxCell id="uP4A9XmEusP5UuuR2ky6-25" value="Запрос списка заказов" style="html=1;verticalAlign=bottom;endArrow=block;entryX=0;entryY=0;rounded=0;" parent="1" source="uP4A9XmEusP5UuuR2ky6-3" target="uP4A9XmEusP5UuuR2ky6-17" edge="1">
          <mxGeometry relative="1" as="geometry">
            <mxPoint x="95" y="355" as="sourcePoint" />
          </mxGeometry>
        </mxCell>
        <mxCell id="uP4A9XmEusP5UuuR2ky6-26" value="Получение списка&lt;br&gt;заказов" style="html=1;verticalAlign=bottom;endArrow=block;rounded=0;exitX=1.006;exitY=0.195;exitDx=0;exitDy=0;exitPerimeter=0;entryX=0.028;entryY=0.001;entryDx=0;entryDy=0;entryPerimeter=0;" parent="1" source="uP4A9XmEusP5UuuR2ky6-17" target="uP4A9XmEusP5UuuR2ky6-23" edge="1">
          <mxGeometry relative="1" as="geometry">
            <mxPoint x="300" y="375" as="sourcePoint" />
            <mxPoint x="400" y="375" as="targetPoint" />
          </mxGeometry>
        </mxCell>
        <mxCell id="uP4A9XmEusP5UuuR2ky6-27" value="Список заказов" style="html=1;verticalAlign=bottom;endArrow=open;dashed=1;endSize=8;exitX=0;exitY=0.95;rounded=0;" parent="1" source="uP4A9XmEusP5UuuR2ky6-23" target="uP4A9XmEusP5UuuR2ky6-1" edge="1">
          <mxGeometry relative="1" as="geometry">
            <mxPoint x="335" y="451" as="targetPoint" />
          </mxGeometry>
        </mxCell>
        <mxCell id="uP4A9XmEusP5UuuR2ky6-28" value="Комплектующее&lt;br&gt;изделие" style="shape=umlLifeline;perimeter=lifelinePerimeter;whiteSpace=wrap;html=1;container=1;collapsible=0;recursiveResize=0;outlineConnect=0;fillColor=#60a917;fontColor=#ffffff;strokeColor=#2D7600;" parent="1" vertex="1">
          <mxGeometry x="500" y="175" width="100" height="480" as="geometry" />
        </mxCell>
        <mxCell id="uP4A9XmEusP5UuuR2ky6-29" value="" style="html=1;points=[];perimeter=orthogonalPerimeter;fillColor=#647687;fontColor=#ffffff;strokeColor=#314354;" parent="uP4A9XmEusP5UuuR2ky6-28" vertex="1">
          <mxGeometry x="45" y="330" width="10" height="60" as="geometry" />
        </mxCell>
        <mxCell id="uP4A9XmEusP5UuuR2ky6-30" value="" style="html=1;points=[];perimeter=orthogonalPerimeter;fillColor=#647687;fontColor=#ffffff;strokeColor=#314354;" parent="uP4A9XmEusP5UuuR2ky6-28" vertex="1">
          <mxGeometry x="45" y="440" width="10" height="40" as="geometry" />
        </mxCell>
        <mxCell id="uP4A9XmEusP5UuuR2ky6-31" value="Выбор заказа" style="html=1;verticalAlign=bottom;endArrow=block;entryX=0;entryY=0;rounded=0;" parent="1" source="uP4A9XmEusP5UuuR2ky6-1" target="uP4A9XmEusP5UuuR2ky6-18" edge="1">
          <mxGeometry relative="1" as="geometry">
            <mxPoint x="215" y="485" as="sourcePoint" />
          </mxGeometry>
        </mxCell>
        <mxCell id="uP4A9XmEusP5UuuR2ky6-32" value="Список комплектующих" style="html=1;verticalAlign=bottom;endArrow=open;dashed=1;endSize=8;exitX=0;exitY=0.95;rounded=0;" parent="1" source="uP4A9XmEusP5UuuR2ky6-29" target="uP4A9XmEusP5UuuR2ky6-1" edge="1">
          <mxGeometry relative="1" as="geometry">
            <mxPoint x="455" y="561" as="targetPoint" />
          </mxGeometry>
        </mxCell>
        <mxCell id="uP4A9XmEusP5UuuR2ky6-33" value="Получение списка&lt;br&gt;комплектующих" style="html=1;verticalAlign=bottom;endArrow=block;entryX=0;entryY=0;rounded=0;" parent="1" source="uP4A9XmEusP5UuuR2ky6-18" target="uP4A9XmEusP5UuuR2ky6-29" edge="1">
          <mxGeometry relative="1" as="geometry">
            <mxPoint x="455" y="485" as="sourcePoint" />
          </mxGeometry>
        </mxCell>
        <mxCell id="uP4A9XmEusP5UuuR2ky6-34" value="Завскладом" style="shape=umlLifeline;perimeter=lifelinePerimeter;whiteSpace=wrap;html=1;container=1;collapsible=0;recursiveResize=0;outlineConnect=0;fillColor=#60a917;fontColor=#ffffff;strokeColor=#2D7600;" parent="1" vertex="1">
          <mxGeometry x="650" y="175" width="100" height="500" as="geometry" />
        </mxCell>
        <mxCell id="uP4A9XmEusP5UuuR2ky6-35" value="" style="html=1;points=[];perimeter=orthogonalPerimeter;fillColor=#647687;fontColor=#ffffff;strokeColor=#314354;" parent="uP4A9XmEusP5UuuR2ky6-34" vertex="1">
          <mxGeometry x="45" y="420" width="10" height="80" as="geometry" />
        </mxCell>
        <mxCell id="uP4A9XmEusP5UuuR2ky6-36" value="Запрос комплектующих" style="html=1;verticalAlign=bottom;endArrow=block;entryX=0;entryY=0;rounded=0;" parent="1" source="uP4A9XmEusP5UuuR2ky6-1" target="uP4A9XmEusP5UuuR2ky6-35" edge="1">
          <mxGeometry relative="1" as="geometry">
            <mxPoint x="575" y="595" as="sourcePoint" />
          </mxGeometry>
        </mxCell>
        <mxCell id="uP4A9XmEusP5UuuR2ky6-37" value="Комплектующие" style="html=1;verticalAlign=bottom;endArrow=open;dashed=1;endSize=8;exitX=0;exitY=0.95;rounded=0;" parent="1" source="uP4A9XmEusP5UuuR2ky6-35" target="uP4A9XmEusP5UuuR2ky6-1" edge="1">
          <mxGeometry relative="1" as="geometry">
            <mxPoint x="575" y="671" as="targetPoint" />
          </mxGeometry>
        </mxCell>
        <mxCell id="uP4A9XmEusP5UuuR2ky6-38" value="Клиент" style="shape=umlLifeline;perimeter=lifelinePerimeter;whiteSpace=wrap;html=1;container=1;collapsible=0;recursiveResize=0;outlineConnect=0;fillColor=#60a917;fontColor=#ffffff;strokeColor=#2D7600;" parent="1" vertex="1">
          <mxGeometry x="800" y="175" width="100" height="680" as="geometry" />
        </mxCell>
        <mxCell id="uP4A9XmEusP5UuuR2ky6-39" value="" style="html=1;points=[];perimeter=orthogonalPerimeter;fillColor=#bac8d3;strokeColor=#23445d;" parent="uP4A9XmEusP5UuuR2ky6-38" vertex="1">
          <mxGeometry x="45" y="610" width="10" height="70" as="geometry" />
        </mxCell>
        <mxCell id="uP4A9XmEusP5UuuR2ky6-40" value="Оповещение клиента" style="html=1;verticalAlign=bottom;startArrow=none;endArrow=block;startSize=8;rounded=0;startFill=0;exitX=0.999;exitY=0.739;exitDx=0;exitDy=0;exitPerimeter=0;" parent="1" source="uP4A9XmEusP5UuuR2ky6-19" target="uP4A9XmEusP5UuuR2ky6-39" edge="1">
          <mxGeometry relative="1" as="geometry">
            <mxPoint x="300" y="860" as="sourcePoint" />
          </mxGeometry>
        </mxCell>
        <mxCell id="uP4A9XmEusP5UuuR2ky6-41" value="" style="shape=umlActor;verticalLabelPosition=bottom;verticalAlign=top;html=1;" parent="1" vertex="1">
          <mxGeometry x="30" y="75" width="40" height="100" as="geometry" />
        </mxCell>
        <mxCell id="uP4A9XmEusP5UuuR2ky6-42" value="Обновление статуса заказа" style="html=1;verticalAlign=bottom;startArrow=none;endArrow=block;startSize=8;rounded=0;startFill=0;entryX=-0.217;entryY=0.604;entryDx=0;entryDy=0;entryPerimeter=0;" parent="1" edge="1" target="uP4A9XmEusP5UuuR2ky6-24">
          <mxGeometry relative="1" as="geometry">
            <mxPoint x="295" y="754.9999999999998" as="sourcePoint" />
            <mxPoint x="405" y="754.9999999999998" as="targetPoint" />
          </mxGeometry>
        </mxCell>
        <mxCell id="uP4A9XmEusP5UuuR2ky6-43" value="Обновление наличия&amp;nbsp;&amp;nbsp;&lt;br&gt;комплектующих" style="endArrow=open;endSize=12;dashed=1;html=1;rounded=0;entryX=0.943;entryY=0.23;entryDx=0;entryDy=0;entryPerimeter=0;exitX=-0.061;exitY=0.356;exitDx=0;exitDy=0;exitPerimeter=0;" parent="1" source="uP4A9XmEusP5UuuR2ky6-35" target="uP4A9XmEusP5UuuR2ky6-30" edge="1">
          <mxGeometry x="-0.1397" y="1" width="160" relative="1" as="geometry">
            <mxPoint x="690" y="624" as="sourcePoint" />
            <mxPoint x="710" y="625" as="targetPoint" />
            <mxPoint as="offset" />
          </mxGeometry>
        </mxCell>
        <mxCell id="uP4A9XmEusP5UuuR2ky6-15" value="Обновление статуса заказа" style="html=1;verticalAlign=bottom;startArrow=none;endArrow=block;startSize=8;rounded=0;startFill=0;entryX=-0.033;entryY=0.371;entryDx=0;entryDy=0;entryPerimeter=0;exitX=1.061;exitY=0.562;exitDx=0;exitDy=0;exitPerimeter=0;" parent="1" edge="1" target="uP4A9XmEusP5UuuR2ky6-19" source="uP4A9XmEusP5UuuR2ky6-4">
          <mxGeometry relative="1" as="geometry">
            <mxPoint x="60" y="760" as="sourcePoint" />
            <mxPoint x="287.74999999999994" y="735" as="targetPoint" />
          </mxGeometry>
        </mxCell>
      </root>
    </mxGraphModel>
  </diagram>
</mxfile>
